<svg width="150" height="142" viewBox="0 0 150 142" fill="none" xmlns="http://www.w3.org/2000/svg">
<path fill-rule="evenodd" clip-rule="evenodd" d="M94.715 27.3437C91.1264 25.8043 87.4116 24.7701 83.5889 24.2134C79.6733 23.6442 75.7063 23.5059 71.7402 23.7231C65.9805 24.0386 60.3121 24.8918 54.7179 26.3222C48.497 27.9124 42.6711 30.3852 37.4109 34.0514C35.4795 35.3977 33.573 36.8572 32.0572 38.7335C30.9108 40.1528 29.5272 41.4068 28.5442 42.9255C27.1136 45.1346 25.796 47.4473 24.7019 49.8404C22.5002 54.6526 21.7526 59.7682 22.2254 65.0295C22.4835 67.9082 22.7356 70.8145 23.3621 73.6258C24.0126 76.5419 25.0807 79.3679 26.0249 82.2145C26.8236 84.6253 27.6637 87.0238 28.5633 89.3987C29.8787 92.8711 31.0598 96.4154 32.6683 99.751C34.7164 103.999 36.8053 108.277 40.0598 111.8C43.2141 115.215 46.9097 117.918 51.3534 119.331C55.2437 120.568 59.2388 120.608 63.2731 119.705C67.7302 118.708 71.4715 116.421 74.7801 113.46C77.197 111.297 79.2985 108.783 81.1729 106.101C82.7178 103.892 84.2286 101.642 85.9684 99.5937C87.8002 97.4364 89.6217 95.2411 91.8724 93.4718C95.0643 90.9617 98.2651 88.4615 101.414 85.8976C104.179 83.6441 106.591 81.0382 108.833 78.2598C110.672 75.9809 112.122 73.4738 113.198 70.7825C115.218 65.7218 116.396 60.5187 115.651 54.9861C115.209 51.6962 114.667 48.4547 113.262 45.4275C112.578 43.9524 111.824 42.4966 110.956 41.1247C109.899 39.4542 108.689 37.8818 108.034 36.9574C103.856 32.4045 99.6174 29.446 94.715 27.3437Z" fill="#E6A386"/>
<g style="mix-blend-mode:multiply">
<path fill-rule="evenodd" clip-rule="evenodd" d="M137.523 114.895C135.554 116.587 133.243 117.749 130.806 118.708C127.318 120.08 123.833 121.461 120.301 122.744C118.044 123.565 115.769 124.39 113.387 124.904C110.148 125.603 106.759 125.753 103.228 125.251C99.9768 124.788 96.7968 123.847 93.676 122.373C90.8856 121.055 88.2917 119.333 85.8309 117.267C82.9504 114.847 80.4864 112.068 78.3947 108.977C76.6763 106.438 75.3295 103.702 74.3348 100.867C72.5366 95.7407 71.9414 90.6759 72.6457 85.7624C73.0972 82.6166 74.0413 79.6921 75.5416 77.0423C76.8468 74.7373 78.4875 72.7533 80.3662 71.0114C81.8612 69.6249 83.6525 68.5929 85.5185 67.6794C87.7456 66.5895 90.1464 65.9121 92.6757 65.5763C96.6349 65.0509 100.701 65.4601 104.854 66.7497C108.185 67.784 111.357 69.3741 114.454 71.2003C115.866 72.0331 117.17 73.124 118.522 74.0993C120.407 75.458 122.301 76.8033 124.174 78.1833C125.919 79.4689 127.657 80.7682 129.37 82.1055C131.54 83.8008 133.707 85.4993 135.663 87.4976C137.512 89.3854 139.116 91.4446 140.383 93.7251C141.677 96.0537 142.475 98.4976 142.797 101.011C143.302 104.95 142.539 108.383 140.686 111.382C139.838 112.755 138.734 113.879 137.523 114.895Z" fill="#97CAD1"/>
</g>
<path d="M59.8906 59.04C59.8906 55.3747 62.862 52.4033 66.5273 52.4033H110.288C116.048 52.4033 120.717 57.0726 120.717 62.8324V96.25C120.717 102.01 116.048 106.679 110.288 106.679H70.3197C64.5599 106.679 59.8906 102.01 59.8906 96.25V59.04Z" fill="white"/>
<rect x="57.082" y="49.6025" width="60.8262" height="54.2757" rx="8.53288" stroke="#00455D" stroke-width="2.84429" stroke-linecap="round" stroke-linejoin="round"/>
<path d="M73.9258 44.9209V54.7467" stroke="#00455D" stroke-width="2.84429" stroke-linecap="round" stroke-linejoin="round"/>
<path d="M101.062 44.9209V54.7467" stroke="#00455D" stroke-width="2.84429" stroke-linecap="round" stroke-linejoin="round"/>
<path d="M58.4844 67.3779H117.439" stroke="#00455D" stroke-width="2.84429" stroke-linecap="round" stroke-linejoin="round"/>
<circle cx="68.313" cy="74.8628" r="1.87158" fill="#E6E6E6"/>
<circle cx="68.313" cy="84.2183" r="1.87158" fill="#E6E6E6"/>
<path d="M76.3612 82.9112L76.946 83.1801C77.4488 83.4112 78.0274 83.4112 78.5302 83.1801L79.115 82.9112L78.8461 83.496C78.615 83.9988 78.615 84.5774 78.8461 85.0802L79.115 85.665L78.5302 85.3961C78.0274 85.165 77.4488 85.165 76.946 85.3961L76.3612 85.665L76.6301 85.0802C76.8612 84.5774 76.8612 83.9988 76.6301 83.496L76.3612 82.9112Z" stroke="#00455D" stroke-width="1.8962" stroke-linecap="round" stroke-linejoin="round"/>
<path d="M67.0018 92.2705L67.5866 92.5394C68.0894 92.7706 68.6681 92.7706 69.1708 92.5394L69.7557 92.2705L69.4868 92.8554C69.2556 93.3581 69.2556 93.9368 69.4868 94.4396L69.7557 95.0244L69.1708 94.7555C68.6681 94.5243 68.0894 94.5243 67.5866 94.7555L67.0018 95.0244L67.2707 94.4396C67.5019 93.9368 67.5019 93.3581 67.2707 92.8554L67.0018 92.2705Z" stroke="#00455D" stroke-width="1.8962" stroke-linecap="round" stroke-linejoin="round"/>
<path d="M95.076 92.2705L95.6609 92.5394C96.1636 92.7706 96.7423 92.7706 97.2451 92.5394L97.8299 92.2705L97.561 92.8554C97.3298 93.3581 97.3298 93.9368 97.561 94.4396L97.8299 95.0244L97.2451 94.7555C96.7423 94.5243 96.1636 94.5243 95.6609 94.7555L95.076 95.0244L95.3449 94.4396C95.5761 93.9368 95.5761 93.3581 95.3449 92.8554L95.076 92.2705Z" stroke="#00455D" stroke-width="1.8962" stroke-linecap="round" stroke-linejoin="round"/>
<circle cx="77.6684" cy="74.8628" r="1.87158" fill="#E6E6E6"/>
<circle cx="77.6684" cy="93.5776" r="1.87158" fill="#E6E6E6"/>
<circle cx="87.0278" cy="74.8628" r="1.87158" fill="#E6E6E6"/>
<circle cx="87.0278" cy="84.2183" r="1.87158" fill="#E6E6E6"/>
<circle cx="87.0278" cy="93.5776" r="1.87158" fill="#E6E6E6"/>
<circle cx="96.3872" cy="74.8628" r="1.87158" fill="#E6E6E6"/>
<path d="M104.365 73.4834L104.95 73.7523C105.453 73.9835 106.031 73.9835 106.534 73.7523L107.119 73.4834L106.85 74.0682C106.619 74.571 106.619 75.1497 106.85 75.6525L107.119 76.2373L106.534 75.9684C106.031 75.7372 105.453 75.7372 104.95 75.9684L104.365 76.2373L104.634 75.6525C104.865 75.1497 104.865 74.571 104.634 74.0682L104.365 73.4834Z" stroke="#00455D" stroke-width="1.8962" stroke-linecap="round" stroke-linejoin="round"/>
<circle cx="96.3872" cy="84.2183" r="1.87158" fill="#E6E6E6"/>
<circle cx="105.743" cy="84.2183" r="1.87158" fill="#E6E6E6"/>
<circle cx="105.743" cy="93.5776" r="1.87158" fill="#E6E6E6"/>
</svg>
