<?xml version="1.0" encoding="UTF-8" standalone="no"?>
<!-- Created with Inkscape (http://www.inkscape.org/) -->

<svg height="34px" viewBox="0 0 150 34" xmlns="http://www.w3.org/2000/svg"><g id="svgGroup" stroke-linecap="round" fill-rule="nonzero" font-size="9pt" stroke="#000" stroke-width="0" fill="#e35063" style="stroke:#000;stroke-width:0;fill:#e35063"><path d="M 35.561 31.864 L 35.045 33.455 Q 34.189 33.52 33.661 33.536 A 10.11 10.11 0 0 1 33.368 33.541 A 4.898 4.898 0 0 1 29.607 31.893 A 6.519 6.519 0 0 1 29.175 31.369 A 7.808 7.808 0 0 1 27.883 28.557 Q 27.613 27.467 27.571 26.193 A 14.469 14.469 0 0 1 27.563 25.715 A 16.158 16.158 0 0 1 27.616 24.52 Q 27.749 22.768 28.214 19.723 A 172.284 172.284 0 0 1 28.53 17.738 Q 29.498 11.869 30.788 7.01 A 23.961 23.961 0 0 0 30.889 6.574 Q 31.017 5.99 31.041 5.704 A 1.401 1.401 0 0 0 31.046 5.591 A 0.572 0.572 0 0 0 31.033 5.461 Q 30.991 5.284 30.822 5.253 A 0.431 0.431 0 0 0 30.745 5.247 Q 30.492 5.247 29.31 7.515 A 75.295 75.295 0 0 0 28.831 8.45 A 324.927 324.927 0 0 0 27.534 11.058 Q 26.957 12.231 26.32 13.546 A 663.297 663.297 0 0 0 24.983 16.319 A 15009.216 15009.216 0 0 1 24.212 17.928 Q 22.966 20.527 22.563 21.364 A 166.967 166.967 0 0 1 22.425 21.651 A 252.024 252.024 0 0 0 22.271 21.968 Q 22.054 22.42 21.909 22.726 Q 21.749 23.062 21.328 23.834 A 88.035 88.035 0 0 1 21.135 24.188 Q 20.554 25.242 20.038 26.059 A 15.28 15.28 0 0 1 19.527 26.789 Q 18.694 27.903 18.106 28.143 A 0.808 0.808 0 0 1 17.802 28.209 A 2.442 2.442 0 0 1 17.235 28.138 Q 16.982 28.077 16.71 27.965 A 4.441 4.441 0 0 1 16.577 27.908 Q 15.91 27.607 15.695 27.263 A 1.616 1.616 0 0 1 15.516 26.816 Q 15.227 25.742 15.222 22.804 A 61.034 61.034 0 0 1 15.222 22.705 Q 15.222 14.707 16.512 7.44 A 438.827 438.827 0 0 0 16.613 6.873 Q 16.906 5.219 16.938 4.948 A 0.466 0.466 0 0 0 16.942 4.903 A 0.789 0.789 0 0 0 16.928 4.746 Q 16.872 4.473 16.598 4.473 A 0.494 0.494 0 0 0 16.271 4.664 Q 15.682 5.285 14.709 7.926 A 54.89 54.89 0 0 0 14.405 8.773 L 13.158 12.342 A 93.455 93.455 0 0 1 11.432 16.87 Q 9.526 21.482 7.59 24.468 A 21.071 21.071 0 0 1 5.261 27.467 Q 3.704 29.118 1.942 30.137 A 12.473 12.473 0 0 1 1.118 30.574 L 0 28.209 A 36.508 36.508 0 0 0 3.073 25.672 Q 5.088 23.802 6.429 21.888 A 22.838 22.838 0 0 0 7.731 19.761 Q 9.436 16.643 11.352 11.482 L 12.814 7.569 A 68.806 68.806 0 0 1 13.542 5.673 Q 14.599 3.048 15.437 1.742 Q 16.065 0.764 16.774 0.335 A 2.204 2.204 0 0 1 17.931 0.001 Q 20.043 0.001 20.198 2.363 A 5.949 5.949 0 0 1 20.21 2.753 Q 20.21 2.968 19.393 11.46 Q 18.726 18.398 18.603 21.476 A 30.513 30.513 0 0 0 18.576 22.662 Q 18.576 23.265 18.733 23.424 A 0.182 0.182 0 0 0 18.834 23.479 A 0.276 0.276 0 0 0 18.976 23.434 Q 19.128 23.343 19.3 23.06 A 2.685 2.685 0 0 0 19.307 23.049 A 129.855 129.855 0 0 0 23.954 14.579 A 152.684 152.684 0 0 0 25.972 10.407 A 1486.721 1486.721 0 0 0 26.2 9.899 Q 26.596 9.02 27.305 7.44 A 59.473 59.473 0 0 1 28.238 5.454 A 43.24 43.24 0 0 1 29.154 3.699 Q 29.938 2.28 30.398 1.817 A 1.373 1.373 0 0 1 30.53 1.699 A 1.443 1.443 0 0 1 30.942 1.484 Q 31.373 1.334 32.035 1.334 A 2.434 2.434 0 0 1 33.796 2.063 A 3.081 3.081 0 0 1 33.82 2.086 A 2.559 2.559 0 0 1 34.407 2.964 A 2.463 2.463 0 0 1 34.572 3.871 A 8.564 8.564 0 0 1 34.514 4.831 Q 34.459 5.322 34.35 5.867 A 15.538 15.538 0 0 1 34.271 6.236 A 685.235 685.235 0 0 0 33.131 11.916 Q 30.917 23.219 30.917 25.822 A 15.586 15.586 0 0 0 30.981 27.292 Q 31.119 28.738 31.552 29.604 A 2.856 2.856 0 0 0 31.949 30.208 A 3.772 3.772 0 0 0 32.938 30.993 Q 33.882 31.531 35.358 31.825 A 13.642 13.642 0 0 0 35.561 31.864 Z M 144.91 21.845 L 145.813 22.705 A 14.035 14.035 0 0 1 144.562 24.598 Q 142.579 27.091 140.18 27.091 A 3.767 3.767 0 0 1 139.379 27.01 Q 138.652 26.852 138.181 26.381 A 2.375 2.375 0 0 1 137.521 25.084 A 3.386 3.386 0 0 1 137.471 24.489 Q 137.471 23.307 138.89 20.426 A 28.127 28.127 0 0 0 139.516 19.071 Q 140.088 17.734 140.29 16.779 A 4.972 4.972 0 0 0 140.395 16.04 A 1.887 1.887 0 0 0 140.399 15.922 Q 140.399 15.646 140.314 15.415 A 1.286 1.286 0 0 0 139.986 14.922 A 1.508 1.508 0 0 0 139.276 14.547 A 2.25 2.25 0 0 0 138.761 14.492 A 3.543 3.543 0 0 0 137.637 14.68 A 4.382 4.382 0 0 0 137.192 14.857 A 4.151 4.151 0 0 0 136.407 15.335 Q 136.068 15.594 135.738 15.939 A 7.127 7.127 0 0 0 135.644 16.04 Q 134.891 16.857 134.268 17.631 A 8.463 8.463 0 0 0 133.865 18.177 Q 133.424 18.826 132.925 19.761 A 27.055 27.055 0 0 0 132.891 19.824 A 359.046 359.046 0 0 1 132.53 20.503 Q 132.027 21.448 131.648 22.143 A 123.236 123.236 0 0 1 131.623 22.189 Q 130.932 23.538 129.787 25.922 A 437.473 437.473 0 0 0 129.043 27.478 L 126.463 26.575 A 0.741 0.741 0 0 1 126.485 26.47 Q 126.64 25.854 127.882 21.716 Q 129.237 17.199 129.298 16.172 A 1.511 1.511 0 0 0 129.301 16.083 A 3.006 3.006 0 0 0 129.267 15.614 Q 129.228 15.367 129.144 15.172 A 1.196 1.196 0 0 0 128.871 14.771 A 1.473 1.473 0 0 0 127.917 14.366 A 1.944 1.944 0 0 0 127.796 14.363 A 2.386 2.386 0 0 0 126.666 14.701 Q 125.222 15.493 123.209 18.134 A 38.307 38.307 0 0 0 122.442 19.179 Q 119.024 23.995 118.078 27.392 L 115.627 26.575 Q 115.826 24.463 117.392 19.23 A 154.738 154.738 0 0 1 117.648 18.383 Q 119.454 12.471 120.701 10.321 L 122.636 11.009 A 47.612 47.612 0 0 0 121.816 12.939 Q 121.471 13.808 121.214 14.578 A 20.088 20.088 0 0 0 120.787 16.018 A 51.515 51.515 0 0 0 120.138 18.959 A 60.813 60.813 0 0 0 119.884 20.383 A 80.834 80.834 0 0 1 121.869 17.657 Q 124.283 14.495 126.076 12.965 A 13.05 13.05 0 0 1 127.441 11.936 Q 129.138 10.837 130.591 10.837 A 3.157 3.157 0 0 1 131.459 10.945 Q 132.432 11.224 132.691 12.217 A 3.231 3.231 0 0 1 132.784 13.03 A 3.518 3.518 0 0 1 132.748 13.486 Q 132.641 14.283 132.217 15.788 A 49.804 49.804 0 0 1 132.032 16.427 A 3400.071 3400.071 0 0 0 131.675 17.628 Q 131.329 18.797 131.068 19.681 A 980.408 980.408 0 0 0 130.849 20.426 A 49.118 49.118 0 0 1 133.297 16.823 Q 137.58 11.134 141.151 10.89 A 4.674 4.674 0 0 1 141.47 10.88 A 3.073 3.073 0 0 1 142.274 10.979 A 2.242 2.242 0 0 1 143.319 11.589 Q 144.007 12.299 144.007 13.696 A 3.891 3.891 0 0 1 143.906 14.509 Q 143.633 15.765 142.62 17.86 A 38.712 38.712 0 0 1 142.394 18.319 A 54.935 54.935 0 0 0 141.847 19.444 Q 140.791 21.682 140.782 22.371 A 0.896 0.896 0 0 0 140.782 22.382 Q 140.782 23.221 141.126 23.608 A 1.134 1.134 0 0 0 141.554 23.915 A 1.153 1.153 0 0 0 141.986 23.995 A 1.658 1.658 0 0 0 142.685 23.817 Q 143.623 23.377 144.91 21.845 Z M 73.745 22.232 L 74.648 22.92 Q 73.702 24.812 72.047 26.102 Q 70.391 27.392 69.058 27.392 A 3.708 3.708 0 0 1 68.172 27.292 A 2.549 2.549 0 0 1 66.951 26.618 A 2.611 2.611 0 0 1 66.178 24.757 A 3.429 3.429 0 0 1 66.177 24.683 Q 66.177 23.607 67.451 21.036 A 37.263 37.263 0 0 1 67.66 20.619 A 26.793 26.793 0 0 0 68.292 19.303 Q 69.144 17.383 69.144 16.341 A 1.43 1.43 0 0 0 68.854 15.482 A 2.015 2.015 0 0 0 68.65 15.244 Q 68.155 14.75 67.467 14.75 Q 65.274 14.75 63.038 18.082 A 36.002 36.002 0 0 0 61.59 20.452 Q 60.174 22.965 58.577 26.506 A 124.389 124.389 0 0 0 58.05 27.693 L 55.47 26.79 Q 56.287 21.802 57.814 17.05 A 67.971 67.971 0 0 1 58.562 14.842 Q 59.663 11.783 60.63 10.235 L 62.393 10.794 Q 61.189 13.847 59.34 21.329 A 49.576 49.576 0 0 1 61.801 17.499 Q 66.222 11.325 70.081 11.184 A 4.931 4.931 0 0 1 70.262 11.181 A 2.596 2.596 0 0 1 71.19 11.341 A 2.343 2.343 0 0 1 72.047 11.912 Q 72.756 12.643 72.756 13.632 Q 72.756 14.621 72.498 15.416 A 7.1 7.1 0 0 1 72.363 15.788 Q 72.016 16.679 71.055 18.75 A 186.071 186.071 0 0 1 70.886 19.114 Q 69.54 21.997 69.531 22.738 A 0.812 0.812 0 0 0 69.531 22.748 A 2.002 2.002 0 0 0 69.582 23.212 A 1.334 1.334 0 0 0 69.961 23.887 Q 70.224 24.137 70.471 24.234 A 0.836 0.836 0 0 0 70.778 24.296 A 1.927 1.927 0 0 0 71.05 24.277 Q 71.262 24.247 71.423 24.167 Q 71.618 24.069 71.85 23.898 A 5.015 5.015 0 0 0 72.004 23.78 A 43.974 43.974 0 0 0 72.31 23.532 A 32.263 32.263 0 0 0 72.584 23.307 A 6.263 6.263 0 0 0 72.774 23.141 Q 72.871 23.053 72.979 22.95 A 14.683 14.683 0 0 0 73.208 22.726 A 13.957 13.957 0 0 1 73.378 22.558 Q 73.616 22.328 73.745 22.232 Z M 93.697 22.232 L 94.6 22.92 Q 93.654 24.812 91.999 26.102 Q 90.343 27.392 89.01 27.392 A 3.708 3.708 0 0 1 88.124 27.292 A 2.549 2.549 0 0 1 86.903 26.618 A 2.611 2.611 0 0 1 86.13 24.757 A 3.429 3.429 0 0 1 86.129 24.683 Q 86.129 23.607 87.403 21.036 A 37.263 37.263 0 0 1 87.612 20.619 A 26.793 26.793 0 0 0 88.244 19.303 Q 89.096 17.383 89.096 16.341 A 1.43 1.43 0 0 0 88.806 15.482 A 2.015 2.015 0 0 0 88.602 15.244 Q 88.107 14.75 87.419 14.75 Q 85.226 14.75 82.99 18.082 A 36.002 36.002 0 0 0 81.542 20.452 Q 80.126 22.965 78.529 26.506 A 124.389 124.389 0 0 0 78.002 27.693 L 75.422 26.79 Q 76.239 21.802 77.766 17.05 A 67.971 67.971 0 0 1 78.514 14.842 Q 79.615 11.783 80.582 10.235 L 82.345 10.794 Q 81.141 13.847 79.292 21.329 A 49.576 49.576 0 0 1 81.753 17.499 Q 86.174 11.325 90.033 11.184 A 4.931 4.931 0 0 1 90.214 11.181 A 2.596 2.596 0 0 1 91.142 11.341 A 2.343 2.343 0 0 1 91.999 11.912 Q 92.708 12.643 92.708 13.632 Q 92.708 14.621 92.45 15.416 A 7.1 7.1 0 0 1 92.315 15.788 Q 91.968 16.679 91.007 18.75 A 186.071 186.071 0 0 1 90.838 19.114 Q 89.492 21.997 89.483 22.738 A 0.812 0.812 0 0 0 89.483 22.748 A 2.002 2.002 0 0 0 89.534 23.212 A 1.334 1.334 0 0 0 89.913 23.887 Q 90.176 24.137 90.423 24.234 A 0.836 0.836 0 0 0 90.73 24.296 A 1.927 1.927 0 0 0 91.002 24.277 Q 91.214 24.247 91.375 24.167 Q 91.57 24.069 91.802 23.898 A 5.015 5.015 0 0 0 91.956 23.78 A 43.974 43.974 0 0 0 92.262 23.532 A 32.263 32.263 0 0 0 92.536 23.307 A 6.263 6.263 0 0 0 92.726 23.141 Q 92.823 23.053 92.931 22.95 A 14.683 14.683 0 0 0 93.16 22.726 A 13.957 13.957 0 0 1 93.33 22.558 Q 93.568 22.328 93.697 22.232 Z M 54.008 23.092 L 54.997 23.823 Q 54.511 24.863 53.368 25.82 A 10.187 10.187 0 0 1 52.783 26.274 A 8.176 8.176 0 0 1 51.802 26.886 Q 51.278 27.16 50.786 27.297 A 3.525 3.525 0 0 1 49.837 27.435 A 3.467 3.467 0 0 1 48.818 27.298 Q 47.3 26.831 47.3 24.769 Q 47.3 23.522 47.945 21.802 L 46.354 23.436 A 27.725 27.725 0 0 1 45.03 24.703 Q 43.528 26.043 42.334 26.618 Q 40.635 27.435 39.001 27.435 Q 37.766 27.435 36.986 26.907 A 2.525 2.525 0 0 1 36.529 26.51 A 3.069 3.069 0 0 1 35.85 25.245 Q 35.69 24.666 35.69 23.952 A 8.4 8.4 0 0 1 36.547 20.319 Q 37.083 19.189 37.955 18.068 A 15.011 15.011 0 0 1 38.012 17.996 Q 40.334 15.051 43.946 13.202 A 17.594 17.594 0 0 1 48.01 11.693 A 14.81 14.81 0 0 1 51.17 11.31 L 51.256 12.729 L 49.45 13.116 Q 45.537 13.976 42.549 16.556 A 12.683 12.683 0 0 0 41.138 17.965 Q 40.46 18.768 40.073 19.57 A 4.853 4.853 0 0 0 39.56 21.694 Q 39.56 24.011 41.253 24.23 A 2.898 2.898 0 0 0 41.624 24.253 A 3.679 3.679 0 0 0 42.956 23.975 Q 44.468 23.385 46.397 21.544 Q 49.235 18.835 51.127 15.18 L 52.933 16.255 A 88.083 88.083 0 0 0 52.027 18.133 Q 50.267 21.904 50.267 23.092 A 1.461 1.461 0 0 0 50.372 23.653 A 1.369 1.369 0 0 0 50.675 24.102 A 1.842 1.842 0 0 0 50.924 24.313 Q 51.208 24.511 51.493 24.511 Q 51.901 24.511 52.03 24.468 A 1.959 1.959 0 0 0 52.272 24.368 A 2.147 2.147 0 0 0 52.288 24.36 A 1.886 1.886 0 0 0 52.375 24.313 Q 52.474 24.257 52.602 24.172 A 5.981 5.981 0 0 0 52.611 24.167 A 3.976 3.976 0 0 0 52.815 24.021 A 3.127 3.127 0 0 0 52.955 23.909 A 4.206 4.206 0 0 1 53.042 23.836 Q 53.184 23.721 53.424 23.541 A 27.808 27.808 0 0 1 53.449 23.522 A 37.426 37.426 0 0 0 53.613 23.398 Q 53.847 23.221 54.008 23.092 Z M 114.079 23.092 L 115.068 23.823 Q 114.582 24.863 113.439 25.82 A 10.187 10.187 0 0 1 112.854 26.274 A 8.176 8.176 0 0 1 111.873 26.886 Q 111.349 27.16 110.857 27.297 A 3.525 3.525 0 0 1 109.908 27.435 A 3.467 3.467 0 0 1 108.889 27.298 Q 107.371 26.831 107.371 24.769 Q 107.371 23.522 108.016 21.802 L 106.425 23.436 A 27.725 27.725 0 0 1 105.101 24.703 Q 103.599 26.043 102.405 26.618 Q 100.706 27.435 99.072 27.435 Q 97.837 27.435 97.057 26.907 A 2.525 2.525 0 0 1 96.6 26.51 A 3.069 3.069 0 0 1 95.921 25.245 Q 95.761 24.666 95.761 23.952 A 8.4 8.4 0 0 1 96.618 20.319 Q 97.154 19.189 98.026 18.068 A 15.011 15.011 0 0 1 98.083 17.996 Q 100.405 15.051 104.017 13.202 A 17.594 17.594 0 0 1 108.081 11.693 A 14.81 14.81 0 0 1 111.241 11.31 L 111.327 12.729 L 109.521 13.116 Q 105.608 13.976 102.62 16.556 A 12.683 12.683 0 0 0 101.209 17.965 Q 100.531 18.768 100.144 19.57 A 4.853 4.853 0 0 0 99.631 21.694 Q 99.631 24.011 101.324 24.23 A 2.898 2.898 0 0 0 101.695 24.253 A 3.679 3.679 0 0 0 103.027 23.975 Q 104.539 23.385 106.468 21.544 Q 109.306 18.835 111.198 15.18 L 113.004 16.255 A 88.083 88.083 0 0 0 112.098 18.133 Q 110.338 21.904 110.338 23.092 A 1.461 1.461 0 0 0 110.443 23.653 A 1.369 1.369 0 0 0 110.746 24.102 A 1.842 1.842 0 0 0 110.995 24.313 Q 111.279 24.511 111.564 24.511 Q 111.972 24.511 112.101 24.468 A 1.959 1.959 0 0 0 112.343 24.368 A 2.147 2.147 0 0 0 112.359 24.36 A 1.886 1.886 0 0 0 112.446 24.313 Q 112.545 24.257 112.673 24.172 A 5.981 5.981 0 0 0 112.682 24.167 A 3.976 3.976 0 0 0 112.886 24.021 A 3.127 3.127 0 0 0 113.026 23.909 A 4.206 4.206 0 0 1 113.113 23.836 Q 113.255 23.721 113.495 23.541 A 27.808 27.808 0 0 1 113.52 23.522 A 37.426 37.426 0 0 0 113.684 23.398 Q 113.918 23.221 114.079 23.092 Z" vector-effect="non-scaling-stroke"/></g></svg>
